<?xml version="1.0" standalone="no"?>
<!DOCTYPE svg PUBLIC "-//W3C//DTD SVG 20010904//EN"
 "http://www.w3.org/TR/2001/REC-SVG-20010904/DTD/svg10.dtd">
<svg version="1.0" xmlns="http://www.w3.org/2000/svg"
 width="300.000000pt" height="300.000000pt" viewBox="0 0 300.000000 300.000000"
 preserveAspectRatio="xMidYMid meet">
<metadata>
Created by potrace 1.10, written by Peter Selinger 2001-2011
</metadata>
<g transform="translate(0.000000,300.000000) scale(0.100000,-0.100000)"
fill="#000000" stroke="none">
<path d="M2615 2401 c-56 -58 -131 -107 -183 -119 -62 -14 -206 -1 -362 33
-63 13 -126 27 -140 29 -56 10 -303 77 -337 91 -23 10 -49 13 -68 9 -29 -6
-275 -91 -345 -119 -19 -8 -93 -35 -165 -61 -194 -70 -201 -75 -317 -208 -149
-172 -144 -164 -124 -184 11 -11 16 -12 16 -4 0 10 5 10 22 1 23 -12 23 -12 4
9 -21 25 -22 23 54 104 33 36 49 47 65 42 18 -5 19 -4 3 9 -18 15 -21 10 57
98 30 34 92 69 120 69 8 0 15 5 15 11 0 6 6 9 14 6 7 -3 17 -2 22 3 5 5 22 11
37 14 16 3 34 9 40 15 7 5 29 12 50 16 20 4 37 10 37 14 0 4 22 14 50 21 27 7
50 18 50 23 0 6 2 8 6 5 4 -5 81 19 157 51 16 6 35 11 43 11 8 0 28 7 45 16
17 8 39 12 51 8 14 -4 18 -3 13 6 -5 7 3 6 21 -3 16 -8 45 -18 64 -21 40 -8
114 -29 210 -58 36 -11 74 -21 85 -23 46 -7 127 -25 136 -30 5 -4 9 -1 9 4 0
8 6 8 18 1 35 -20 160 -37 257 -35 113 3 137 7 143 23 2 7 8 9 14 6 6 -4 13
-3 17 2 3 5 24 22 46 38 22 16 56 47 76 69 61 69 67 56 68 -143 0 -94 3 -176
7 -181 3 -5 2 -9 -3 -9 -4 0 -7 -30 -5 -68 3 -61 1 -69 -21 -90 -25 -23 -27
-62 -3 -62 6 0 4 -5 -4 -10 -8 -5 -10 -10 -4 -10 19 0 23 12 12 30 -9 14 -9
22 1 34 18 21 27 20 27 -3 0 -13 -5 -17 -16 -13 -12 5 -13 3 -3 -9 7 -9 11
-43 10 -88 -3 -86 -4 -88 -118 -126 -80 -26 -125 -26 -115 0 3 8 0 16 -7 18
-7 2 -9 8 -5 12 14 15 40 -4 33 -25 -5 -15 -3 -18 10 -14 9 4 13 9 10 12 -3 3
2 13 11 23 14 16 13 18 -7 33 -32 22 -17 31 18 11 23 -14 25 -14 9 -1 -15 12
-16 16 -5 16 8 0 21 -6 29 -12 12 -11 12 -10 0 5 -12 16 -12 20 1 28 12 7 12
9 -1 9 -33 0 -40 21 -19 54 l21 31 -26 -30 c-14 -16 -22 -34 -17 -40 13 -18 6
-40 -12 -37 -25 4 -32 -25 -12 -48 22 -25 9 -26 -18 -3 -18 17 -19 17 -28 0
-6 -9 -18 -17 -28 -17 -22 0 -43 -22 -39 -41 2 -8 -3 -13 -9 -12 -7 2 -13 0
-13 -5 0 -4 -15 -6 -32 -5 -167 11 -226 17 -241 25 -9 5 -22 6 -27 3 -6 -3
-10 -1 -10 4 0 6 -3 10 -7 9 -16 -4 -59 15 -106 45 -44 30 -48 35 -45 69 4 68
-75 134 -124 104 -13 -8 -32 -4 -75 14 -39 16 -78 24 -119 25 -34 0 -60 4 -57
9 3 4 -4 5 -15 2 -47 -15 -218 -32 -292 -29 -36 2 -85 4 -110 5 -25 1 -38 3
-29 5 10 2 19 12 22 22 4 18 3 18 -23 3 -16 -9 -26 -21 -23 -26 4 -5 1 -6 -6
-2 -7 5 -10 13 -8 20 3 7 -4 13 -16 13 -28 3 -94 70 -82 82 6 6 26 13 45 15
19 3 55 10 79 16 24 6 46 8 49 5 3 -2 10 0 17 5 6 5 38 11 71 14 32 2 59 5 59
6 0 5 42 9 185 19 80 6 158 14 175 17 16 4 44 8 62 10 18 1 41 8 52 13 11 6
31 11 45 11 14 0 26 4 26 10 0 5 3 9 8 8 4 -2 18 5 32 16 27 20 32 20 -70 -8
-89 -25 -212 -44 -300 -47 -142 -5 -529 -68 -557 -91 -18 -15 -16 -25 12 -62
57 -74 186 -113 342 -102 49 3 150 9 225 12 132 6 138 5 191 -19 29 -15 60
-33 67 -41 7 -10 21 -14 35 -10 16 4 27 -1 39 -17 22 -32 11 -37 -19 -9 -14
13 -25 19 -25 13 0 -12 142 -123 188 -147 63 -32 184 -57 297 -61 180 -6 304
16 410 71 l40 21 3 359 c1 197 0 374 -3 392 -9 51 -42 43 -110 -27z m-769
-563 c25 -12 44 -48 44 -83 0 -37 -17 -30 -24 10 -8 41 -38 65 -83 65 -35 0
-45 15 -15 23 20 5 48 0 78 -15z m598 -200 c-4 -6 -2 -8 4 -4 14 9 27 -13 14
-26 -7 -7 -18 -4 -36 7 -30 20 -33 32 -8 38 23 5 34 -2 26 -15z"/>
<path d="M1848 2215 c-3 -3 -34 -8 -69 -10 -35 -3 -115 -10 -177 -16 -62 -6
-132 -10 -155 -9 -23 1 -44 1 -47 0 -3 -1 -27 -3 -55 -6 -27 -2 -84 -11 -125
-19 -109 -20 -164 -29 -172 -27 -5 1 -8 -1 -8 -5 0 -8 -12 -10 -85 -13 -19 -1
-38 -6 -41 -11 -9 -15 -32 -10 -38 9 -3 9 -4 5 -2 -10 2 -17 -6 -36 -21 -54
-25 -29 -29 -39 -13 -29 6 3 10 -2 11 -12 0 -10 2 -28 5 -40 2 -13 0 -23 -5
-23 -5 0 -22 -14 -38 -30 -15 -17 -44 -41 -63 -53 -30 -18 -69 -50 -114 -92
-26 -25 -106 -75 -119 -75 -8 0 -20 -6 -26 -13 -6 -8 -31 -15 -56 -15 -37 -2
-45 1 -45 15 1 10 18 32 39 48 22 17 36 36 33 44 -4 11 -1 11 16 2 15 -8 22
-8 22 -1 0 5 -5 10 -11 10 -6 0 1 13 17 28 16 15 32 26 37 24 4 -2 7 2 7 8 0
6 5 8 10 5 12 -7 13 5 2 23 -6 9 -36 -14 -105 -83 -53 -53 -97 -101 -97 -106
0 -30 20 -46 57 -44 85 4 137 35 353 210 41 34 87 70 103 80 26 17 27 19 12
41 -19 30 -19 68 1 88 15 15 23 18 89 30 17 3 100 19 186 36 94 18 205 32 280
35 215 9 419 36 419 56 0 10 -4 12 -12 4z"/>
<path d="M850 2080 c0 -5 5 -10 11 -10 5 0 7 5 4 10 -3 6 -8 10 -11 10 -2 0
-4 -4 -4 -10z"/>
<path d="M830 2060 c0 -6 -4 -8 -10 -5 -5 3 -10 1 -10 -4 0 -13 10 -14 29 -2
9 6 10 11 2 15 -6 4 -11 2 -11 -4z"/>
<path d="M770 2015 c6 -8 18 -11 26 -8 18 7 13 12 -16 18 -18 3 -20 2 -10 -10z"/>
<path d="M716 1995 c4 -8 10 -15 15 -15 4 0 6 7 3 15 -4 8 -10 15 -15 15 -4 0
-6 -7 -3 -15z"/>
<path d="M757 1985 c3 -8 9 -12 14 -9 12 7 11 11 -5 17 -10 4 -13 1 -9 -8z"/>
<path d="M717 1948 c-3 -10 -2 -18 2 -18 3 0 11 8 18 18 9 15 8 19 -2 19 -8 0
-16 -9 -18 -19z"/>
<path d="M675 1950 c3 -5 12 -7 20 -3 21 7 19 13 -6 13 -11 0 -18 -4 -14 -10z"/>
<path d="M1130 1924 c0 -8 5 -12 10 -9 6 4 8 11 5 16 -9 14 -15 11 -15 -7z"/>
<path d="M800 1830 c-232 -182 -275 -210 -342 -224 -59 -12 -65 -15 -87 -55
-22 -40 -22 -43 -6 -62 11 -12 31 -19 53 -19 31 0 48 14 175 143 90 90 173
164 227 200 114 76 123 84 115 96 -3 6 -9 11 -13 11 -4 0 -59 -41 -122 -90z
m-270 -239 c0 -14 -78 -90 -84 -83 -3 3 -6 0 -6 -6 0 -17 -39 -10 -45 9 -3 9
-1 28 4 43 8 20 17 26 43 27 18 0 42 4 53 9 27 12 35 12 35 1z"/>
<path d="M915 1849 c-27 -22 -79 -59 -115 -84 -77 -53 -230 -195 -209 -195 8
1 46 31 86 68 40 38 98 86 130 107 94 64 173 125 173 136 0 15 -13 9 -65 -32z"/>
<path d="M1010 1863 c-8 -3 -44 -29 -80 -58 -36 -28 -81 -62 -100 -75 -19 -13
-42 -31 -51 -39 -8 -9 -38 -34 -67 -55 -28 -22 -49 -43 -46 -47 8 -14 58 10
99 47 22 20 69 60 105 89 72 59 168 145 160 144 -3 0 -12 -3 -20 -6z"/>
<path d="M2593 1829 c-18 -16 -33 -33 -33 -37 0 -13 50 -54 50 -42 0 7 7 10
16 6 8 -3 12 -2 9 3 -3 6 3 14 12 20 17 9 17 11 -3 33 -12 13 -19 29 -17 36 7
18 1 15 -34 -19z m37 -24 c11 -13 10 -18 -6 -30 -16 -12 -21 -11 -37 3 -22 19
-4 30 18 12 11 -9 15 -9 15 -1 0 6 -4 11 -10 11 -5 0 -10 5 -10 10 0 15 16 12
30 -5z"/>
<path d="M2640 1841 c0 -5 5 -13 10 -16 6 -3 10 -2 10 4 0 5 -4 13 -10 16 -5
3 -10 2 -10 -4z"/>
<path d="M1418 1663 c-9 -2 -33 -27 -53 -54 -35 -49 -43 -69 -26 -69 4 0 28
-16 53 -35 l46 -34 31 50 31 51 -21 34 c-11 19 -28 38 -37 44 -13 7 -14 9 -3
10 8 0 25 -10 38 -22 13 -12 23 -16 23 -10 0 13 88 17 105 4 26 -18 45 -62 36
-81 -6 -10 -8 -21 -5 -24 3 -3 -3 -10 -13 -15 -27 -15 -59 3 -78 42 -9 19 -24
41 -33 48 -13 11 -14 10 -4 -8 6 -12 9 -24 5 -27 -3 -4 1 -17 10 -30 14 -22
14 -24 0 -23 -9 0 -18 -5 -20 -11 -4 -10 14 -13 65 -13 l70 0 30 53 c16 28 27
56 25 61 -3 4 -10 2 -15 -5 -7 -11 -11 -10 -21 5 -36 59 -51 66 -139 65 -46
-1 -91 -3 -100 -6z m32 -51 c23 -18 23 -19 5 -60 -18 -41 -18 -41 -47 -26 -36
19 -43 36 -27 66 22 42 37 46 69 20z"/>
<path d="M1290 1490 c-25 -3 -46 -10 -47 -17 -2 -7 4 -10 12 -7 19 8 19 -4 0
-36 -24 -43 -17 -73 34 -148 27 -39 47 -73 45 -75 -3 -2 32 -5 76 -6 l80 -2 0
69 0 69 -52 -4 c-75 -6 -76 -7 -92 -60 -14 -45 -15 -46 -15 -15 -1 18 4 43 10
55 16 30 61 66 76 60 19 -7 16 6 -14 64 -30 56 -41 61 -113 53z m80 -39 c12
-24 13 -58 1 -63 -4 -1 -18 -25 -30 -53 l-22 -50 -19 25 c-38 50 -44 76 -25
116 11 23 22 34 31 30 8 -3 14 -1 14 4 0 18 39 10 50 -9z m88 -183 c3 -33 0
-38 -22 -44 -14 -3 -38 -3 -52 0 -23 6 -26 11 -20 38 8 38 17 45 59 44 29 -1
32 -4 35 -38z"/>
<path d="M1648 1466 l-57 -32 29 -51 29 -50 45 7 c25 4 53 12 63 20 10 7 5 1
-10 -14 -20 -18 -39 -26 -66 -26 -43 0 -91 20 -91 38 0 24 -16 10 -49 -44 -36
-60 -36 -56 8 -132 22 -39 36 -45 36 -17 0 16 6 19 31 17 41 -4 72 24 114 103
18 33 36 65 40 70 8 9 -49 145 -60 144 -3 0 -31 -15 -62 -33z m75 -42 c21 -43
10 -64 -33 -64 -21 0 -31 8 -43 32 -15 32 -15 33 11 50 38 25 46 23 65 -18z
m-28 -151 c-29 -69 -100 -91 -142 -44 -20 23 -21 27 -7 50 14 24 22 26 90 28
l74 2 -15 -36z"/>
<path d="M2532 1248 c-33 -29 -85 -83 -115 -119 -30 -36 -81 -83 -114 -105
-32 -21 -93 -65 -136 -97 -64 -48 -76 -61 -66 -73 9 -12 22 -6 73 36 70 58
230 181 290 224 52 37 98 56 134 56 23 0 35 9 56 38 33 48 33 66 1 80 -43 20
-62 14 -123 -40z m113 12 c14 -23 -24 -58 -77 -70 -29 -7 -62 -17 -73 -22 -11
-5 5 16 37 46 55 55 97 72 113 46z"/>
<path d="M2355 1129 c-39 -39 -97 -86 -129 -106 -64 -37 -174 -123 -175 -135
-2 -18 21 -5 105 60 49 37 101 73 115 81 37 18 187 171 168 171 -8 0 -46 -32
-84 -71z"/>
<path d="M555 1181 c-90 -15 -160 -40 -223 -80 l-62 -41 0 -335 c0 -291 2
-335 15 -335 18 0 20 -31 3 -48 -16 -16 4 -16 21 1 11 10 12 8 6 -10 -11 -38
35 -30 76 13 48 51 147 119 194 134 78 26 223 9 540 -60 99 -22 216 -51 260
-65 44 -14 91 -25 105 -25 42 0 340 101 594 202 148 59 154 64 326 267 58 69
140 159 183 201 81 80 94 110 56 131 -42 22 -129 -10 -229 -85 -76 -56 -191
-148 -210 -166 -8 -8 -28 -24 -43 -35 -27 -20 -28 -21 -13 -50 20 -38 20 -48
-1 -74 -12 -14 -40 -26 -83 -35 -214 -45 -366 -68 -506 -76 -151 -9 -233 -16
-244 -19 -7 -2 23 -21 33 -21 5 0 5 5 2 10 -3 5 1 10 9 10 22 0 20 -13 -4 -35
-19 -17 -20 -17 -41 9 -11 14 -29 26 -39 26 -32 0 -120 -23 -120 -32 0 -12 36
-10 83 4 38 12 41 11 63 -17 12 -16 20 -34 17 -39 -3 -6 14 8 38 30 24 23 51
42 59 42 75 1 355 18 355 22 0 1 10 3 23 6 16 3 21 0 16 -8 -4 -7 6 -2 23 10
48 34 51 26 8 -18 -32 -33 -37 -42 -26 -52 11 -11 12 -10 6 0 -8 15 14 43 57
73 28 21 163 50 187 41 10 -4 12 -1 6 8 -5 8 -3 11 6 8 19 -7 79 18 96 40 9
11 12 33 9 67 l-5 50 74 60 c41 33 87 70 102 83 15 12 43 32 61 43 17 11 32
24 32 29 0 5 16 14 35 21 19 7 35 16 35 20 0 13 103 30 113 20 16 -16 -12 -41
-54 -47 -52 -9 -87 -43 -95 -94 -5 -28 -20 -57 -47 -89 -220 -256 -215 -251
-337 -305 -57 -26 -111 -48 -120 -50 -8 -2 -28 -8 -43 -14 -16 -7 -37 -12 -48
-12 -10 0 -19 -4 -19 -10 0 -5 -11 -10 -25 -10 -14 0 -25 -4 -25 -8 0 -8 -71
-31 -111 -36 -14 -1 -40 -12 -57 -25 -18 -12 -32 -18 -32 -12 0 10 -37 -3 -92
-30 -9 -4 -27 -6 -40 -3 -13 3 -39 9 -58 14 -19 4 -47 12 -62 18 -16 7 -28 8
-28 5 0 -4 -5 -2 -12 5 -7 7 -20 12 -30 12 -10 0 -18 5 -18 11 0 8 -5 8 -15
-1 -10 -9 -15 -9 -15 -1 0 6 -18 11 -42 11 -50 1 -110 21 -141 47 l-22 18 19
-22 c24 -29 10 -30 -21 -1 -13 12 -23 16 -23 10 0 -15 -25 -15 -51 -1 -17 9
-18 13 -7 27 7 9 1 7 -13 -5 -25 -23 -45 -31 -35 -15 3 5 -7 9 -22 10 -15 0
-54 5 -88 11 -66 10 -191 9 -239 -4 -16 -4 -42 -19 -57 -32 -16 -16 -31 -22
-40 -17 -7 4 -10 3 -5 -1 10 -12 -22 -45 -39 -38 -9 3 -14 -2 -14 -17 0 -12
-4 -18 -10 -15 -6 4 -9 1 -8 -6 2 -6 -3 -14 -11 -17 -8 -2 -11 0 -8 5 3 5 -1
10 -9 10 -10 0 -11 -4 -4 -11 16 -16 12 -25 -10 -19 -11 3 -20 10 -20 16 0 6
-7 19 -17 29 -13 15 -16 39 -14 145 1 69 5 131 8 136 3 6 1 7 -5 3 -13 -8 -17
6 -5 18 10 10 3 107 -9 131 -10 17 -9 18 3 8 12 -10 14 4 11 95 -1 59 1 112 5
118 26 35 127 84 203 98 102 19 219 26 226 15 3 -5 0 -18 -7 -27 -10 -12 -6
-11 10 3 46 39 205 19 316 -42 29 -16 160 -115 180 -137 6 -6 19 -16 30 -22
11 -6 25 -21 31 -32 8 -17 13 -19 24 -9 10 10 12 8 6 -8 -4 -11 -5 -17 -1 -14
3 3 33 1 68 -6 34 -6 97 -10 140 -9 42 1 77 0 77 -3 0 -14 -45 -43 -58 -38
-12 4 -12 3 -3 -9 7 -8 18 -13 25 -10 7 3 19 -2 26 -11 11 -13 10 -19 -5 -35
-17 -19 -18 -19 -39 8 -11 14 -20 30 -19 34 6 17 -15 7 -41 -19 -18 -18 -24
-32 -20 -46 5 -16 3 -19 -10 -14 -18 7 -63 -17 -83 -44 -7 -9 -32 -19 -55 -23
-79 -12 -135 -29 -159 -48 l-24 -20 25 7 c99 27 240 55 297 60 37 2 124 9 193
15 142 11 423 61 445 80 24 20 18 41 -24 81 -60 56 -136 81 -254 83 -73 1
-100 -2 -106 -13 -7 -10 -10 -10 -13 -1 -3 10 -24 10 -106 0 -106 -13 -194 -8
-248 15 -16 7 -83 55 -147 107 -127 103 -171 129 -262 153 -68 19 -311 29
-390 16z m2055 -146 c0 -2 -14 -12 -31 -20 -17 -9 -40 -33 -52 -53 -20 -33
-22 -35 -25 -15 -5 32 15 63 51 78 33 15 57 19 57 10z m-872 -154 l26 10 -28
-28 c-16 -15 -32 -28 -38 -28 -5 0 -13 -7 -18 -15 -8 -13 -11 -12 -24 5 -14
18 -13 22 12 42 16 13 30 19 36 13 5 -5 19 -5 34 1z m168 -11 c11 10 134 -38
134 -52 0 -5 5 -6 12 -2 8 5 9 2 5 -10 -4 -9 -3 -15 2 -12 5 3 15 -1 22 -10
11 -14 10 -18 -6 -30 -22 -16 -45 -18 -45 -4 0 6 -5 10 -11 10 -6 0 -9 -7 -6
-14 4 -10 1 -13 -7 -10 -8 3 -17 1 -21 -5 -3 -6 -11 -11 -17 -11 -6 0 -1 11
12 25 20 21 21 27 10 38 -10 10 -11 9 -6 -1 10 -16 -41 -62 -69 -63 -11 0 -28
-2 -38 -4 -111 -21 -159 -27 -186 -23 -17 2 -31 2 -31 -1 0 -3 -26 -7 -58 -8
l-57 -2 37 32 c20 18 67 57 104 87 37 30 74 61 81 69 9 9 27 12 54 8 28 -4 37
-2 32 6 -4 7 4 4 19 -5 14 -9 29 -13 34 -8z m-250 -79 c-10 -16 -31 -14 -46 4
-10 12 -10 18 0 31 12 13 15 13 33 -4 11 -11 16 -25 13 -31z m-126 -30 c0 -5
-6 -12 -12 -15 -7 -3 -3 -3 9 -1 12 3 24 1 28 -4 7 -12 -33 -71 -48 -71 -5 0
-4 7 3 15 7 8 9 15 5 15 -4 0 -2 7 5 15 11 13 10 14 -3 10 -20 -8 -32 12 -17
30 14 17 30 20 30 6z m-60 -77 c0 -8 5 -12 10 -9 6 3 10 1 10 -5 0 -6 -10 -10
-22 -8 -26 3 -38 38 -14 38 9 0 16 -7 16 -16z m-42 -33 c-14 -5 -31 15 -23 29
5 8 11 6 20 -7 9 -11 10 -19 3 -22z"/>
<path d="M1860 856 c0 -3 9 -10 20 -16 11 -6 20 -8 20 -6 0 3 -9 10 -20 16
-11 6 -20 8 -20 6z"/>
<path d="M1910 846 c0 -2 8 -10 18 -17 15 -13 16 -12 3 4 -13 16 -21 21 -21
13z"/>
<path d="M2325 1178 c-11 -6 -42 -32 -70 -58 -27 -26 -72 -64 -100 -85 -52
-39 -145 -122 -145 -130 0 -16 30 3 88 55 37 33 70 60 74 60 17 0 198 148 198
162 0 11 -21 10 -45 -4z"/>
<path d="M745 1120 c-3 -5 -1 -10 4 -10 6 0 11 5 11 10 0 6 -2 10 -4 10 -3 0
-8 -4 -11 -10z"/>
<path d="M905 1049 c-78 -39 -76 -180 2 -210 31 -11 90 -12 97 0 3 4 19 11 36
15 23 4 35 15 45 41 8 19 15 42 15 51 0 31 -33 85 -61 99 -32 17 -104 19 -134
4z m132 -31 c9 -7 22 -28 30 -45 11 -28 11 -38 -1 -68 -8 -19 -20 -35 -27 -35
-7 0 -8 7 -4 18 28 64 -1 122 -59 122 -48 0 -70 -21 -70 -65 0 -25 6 -42 19
-51 23 -17 57 -18 73 -2 28 28 2 88 -33 74 -17 -6 -20 -41 -5 -51 6 -3 10 1
10 9 0 9 5 16 11 16 18 0 5 -35 -14 -38 -23 -5 -47 15 -47 39 0 27 28 49 61
49 24 0 33 -6 43 -32 16 -36 12 -53 -17 -85 -62 -69 -172 34 -126 118 23 44
117 60 156 27z"/>
<path d="M801 856 c-7 -8 -13 -26 -15 -40 -4 -34 -10 -40 -26 -21 -7 8 -17 15
-23 15 -6 0 0 -11 13 -25 22 -24 25 -24 34 -8 5 10 11 28 12 41 2 13 8 30 15
38 6 8 9 14 6 14 -2 0 -10 -6 -16 -14z"/>
<path d="M820 840 c-9 -6 -10 -10 -3 -10 6 0 15 5 18 10 8 12 4 12 -15 0z"/>
<path d="M810 809 c0 -5 5 -7 10 -4 6 3 10 8 10 11 0 2 -4 4 -10 4 -5 0 -10
-5 -10 -11z"/>
<path d="M1246 805 c-11 -8 -15 -15 -9 -15 6 0 16 7 23 15 16 19 11 19 -14 0z"/>
<path d="M357 779 c7 -7 15 -10 18 -7 3 3 -2 9 -12 12 -14 6 -15 5 -6 -5z"/>
<path d="M1185 779 c-4 -6 -5 -12 -2 -15 2 -3 7 2 10 11 7 17 1 20 -8 4z"/>
<path d="M664 750 c26 -13 43 -17 48 -10 4 5 6 8 2 6 -3 -2 -21 2 -39 10 -50
20 -56 16 -11 -6z"/>
<path d="M791 754 c0 -11 3 -14 6 -6 3 7 2 16 -1 19 -3 4 -6 -2 -5 -13z"/>
<path d="M1154 750 c0 -13 4 -16 10 -10 7 7 7 13 0 20 -6 6 -10 3 -10 -10z"/>
<path d="M730 740 c-6 -11 -7 -20 -2 -20 10 0 32 21 32 32 0 16 -19 8 -30 -12z"/>
<path d="M1200 751 c0 -5 8 -15 18 -22 15 -12 16 -12 5 2 -7 9 -10 19 -6 22 3
4 1 7 -5 7 -7 0 -12 -4 -12 -9z"/>
<path d="M624 729 c-17 -28 46 -48 67 -21 13 15 12 16 -4 3 -16 -13 -20 -13
-28 0 -5 8 -9 17 -9 22 0 11 -18 8 -26 -4z"/>
<path d="M770 731 c0 -6 4 -13 10 -16 6 -3 7 1 4 9 -7 18 -14 21 -14 7z"/>
<path d="M1159 713 l-24 -28 26 22 c20 19 28 20 39 10 12 -10 12 -9 1 6 -7 9
-14 17 -15 17 -2 0 -13 -12 -27 -27z"/>
<path d="M739 703 c-13 -16 -12 -17 4 -4 9 7 17 15 17 17 0 8 -8 3 -21 -13z"/>
<path d="M689 683 c-13 -16 -12 -17 4 -4 9 7 17 15 17 17 0 8 -8 3 -21 -13z"/>
<path d="M598 683 c6 -2 18 -2 25 0 6 3 1 5 -13 5 -14 0 -19 -2 -12 -5z"/>
<path d="M674 638 l-29 -33 33 29 c17 17 32 31 32 33 0 8 -8 1 -36 -29z"/>
<path d="M1069 623 c-13 -16 -12 -17 4 -4 9 7 17 15 17 17 0 8 -8 3 -21 -13z"/>
<path d="M476 615 c-3 -8 -2 -23 1 -32 6 -16 5 -17 -13 -3 -18 14 -18 14 -5
-2 17 -22 34 -13 25 14 -4 14 -2 18 5 14 6 -4 11 -3 11 3 0 17 -18 22 -24 6z"/>
<path d="M520 611 c0 -6 4 -13 10 -16 6 -3 7 1 4 9 -7 18 -14 21 -14 7z"/>
<path d="M1780 575 c7 -9 15 -13 17 -11 7 7 -7 26 -19 26 -6 0 -6 -6 2 -15z"/>
<path d="M1759 568 c7 -9 9 -23 5 -30 -6 -10 -4 -11 7 0 11 10 10 15 -6 30
-17 15 -18 15 -6 0z"/>
<path d="M362 551 c-11 -7 -11 -9 0 -14 9 -3 15 1 15 9 0 8 -1 14 -1 14 -1 0
-7 -4 -14 -9z"/>
<path d="M424 553 c13 -23 43 -34 49 -18 4 9 1 12 -9 8 -8 -3 -22 1 -31 8 -11
10 -14 10 -9 2z"/>
<path d="M954 552 c3 -5 0 -12 -6 -15 -7 -2 -10 -7 -7 -11 3 -4 12 0 18 8 9
11 9 16 0 22 -7 4 -9 3 -5 -4z"/>
<path d="M390 540 c0 -5 5 -10 11 -10 5 0 7 5 4 10 -3 6 -8 10 -11 10 -2 0 -4
-4 -4 -10z"/>
<path d="M1785 530 c-3 -5 -1 -10 4 -10 6 0 11 5 11 10 0 6 -2 10 -4 10 -3 0
-8 -4 -11 -10z"/>
<path d="M350 522 c0 -5 7 -15 15 -22 8 -7 15 -8 15 -2 0 5 -7 15 -15 22 -8 7
-15 8 -15 2z"/>
<path d="M1010 526 c0 -2 8 -10 18 -17 15 -13 16 -12 3 4 -13 16 -21 21 -21
13z"/>
<path d="M400 499 c0 -5 5 -7 10 -4 6 3 10 8 10 11 0 2 -4 4 -10 4 -5 0 -10
-5 -10 -11z"/>
<path d="M1655 440 c-3 -6 1 -7 9 -4 18 7 21 14 7 14 -6 0 -13 -4 -16 -10z"/>
</g>
</svg>
